<svg xmlns="http://www.w3.org/2000/svg" xmlns:xlink="http://www.w3.org/1999/xlink" width="500" zoomAndPan="magnify" viewBox="0 0 375 149.999998" height="200" preserveAspectRatio="xMidYMid meet" version="1.0"><defs><g/><clipPath id="cb12f5782c"><path d="M 15 33.175781 L 81.75 33.175781 L 81.75 107.425781 L 15 107.425781 Z M 15 33.175781 " clip-rule="nonzero"/></clipPath><clipPath id="072b2c6de3"><rect x="0" width="274" y="0" height="62"/></clipPath></defs><g clip-path="url(#cb12f5782c)"><path fill="#7ed957" d="M 65.207031 70.511719 L 61.277344 66.578125 L 43.167969 84.6875 L 35.300781 76.820312 L 31.367188 80.753906 L 43.167969 92.554688 Z M 74.375 40.601562 L 70.664062 40.601562 L 70.664062 33.179688 L 63.242188 33.179688 L 63.242188 40.601562 L 33.554688 40.601562 L 33.554688 33.179688 L 26.132812 33.179688 L 26.132812 40.601562 L 22.421875 40.601562 C 18.320312 40.601562 15.039062 43.921875 15.039062 48.023438 L 15 99.976562 C 15 104.078125 18.320312 107.398438 22.421875 107.398438 L 74.375 107.398438 C 78.476562 107.398438 81.796875 104.078125 81.796875 99.976562 L 81.796875 48.023438 C 81.796875 43.921875 78.476562 40.601562 74.375 40.601562 Z M 74.375 99.976562 L 22.421875 99.976562 L 22.421875 59.15625 L 74.375 59.15625 Z M 74.375 99.976562 " fill-opacity="1" fill-rule="nonzero"/></g><g transform="matrix(1, 0, 0, 1, 87, 47)"><g clip-path="url(#072b2c6de3)"><g fill="#c0c0c0" fill-opacity="1"><g transform="translate(1.867383, 48.505665)"><g><path d="M 37.671875 -34.875 L 22.578125 0 L 14.59375 0 L -0.453125 -34.875 L 8.265625 -34.875 L 18.890625 -9.96875 L 29.640625 -34.875 Z M 37.671875 -34.875 "/></g></g></g><g fill="#c0c0c0" fill-opacity="1"><g transform="translate(38.777686, 48.505665)"><g><path d="M 3.59375 -26.8125 L 11.359375 -26.8125 L 11.359375 0 L 3.59375 0 Z M 7.46875 -30.546875 C 6.039062 -30.546875 4.878906 -30.957031 3.984375 -31.78125 C 3.085938 -32.613281 2.640625 -33.644531 2.640625 -34.875 C 2.640625 -36.101562 3.085938 -37.132812 3.984375 -37.96875 C 4.878906 -38.800781 6.039062 -39.21875 7.46875 -39.21875 C 8.894531 -39.21875 10.054688 -38.816406 10.953125 -38.015625 C 11.859375 -37.222656 12.3125 -36.226562 12.3125 -35.03125 C 12.3125 -33.726562 11.859375 -32.65625 10.953125 -31.8125 C 10.054688 -30.96875 8.894531 -30.546875 7.46875 -30.546875 Z M 7.46875 -30.546875 "/></g></g></g><g fill="#c0c0c0" fill-opacity="1"><g transform="translate(53.770967, 48.505665)"><g><path d="M 12.609375 0.40625 C 10.378906 0.40625 8.203125 0.128906 6.078125 -0.421875 C 3.953125 -0.972656 2.257812 -1.660156 1 -2.484375 L 3.59375 -8.078125 C 4.78125 -7.304688 6.222656 -6.679688 7.921875 -6.203125 C 9.617188 -5.722656 11.28125 -5.484375 12.90625 -5.484375 C 16.195312 -5.484375 17.84375 -6.296875 17.84375 -7.921875 C 17.84375 -8.679688 17.390625 -9.226562 16.484375 -9.5625 C 15.585938 -9.894531 14.210938 -10.179688 12.359375 -10.421875 C 10.160156 -10.742188 8.347656 -11.117188 6.921875 -11.546875 C 5.492188 -11.984375 4.253906 -12.75 3.203125 -13.84375 C 2.160156 -14.945312 1.640625 -16.507812 1.640625 -18.53125 C 1.640625 -20.226562 2.128906 -21.734375 3.109375 -23.046875 C 4.085938 -24.359375 5.515625 -25.378906 7.390625 -26.109375 C 9.273438 -26.835938 11.492188 -27.203125 14.046875 -27.203125 C 15.941406 -27.203125 17.828125 -26.992188 19.703125 -26.578125 C 21.578125 -26.160156 23.128906 -25.585938 24.359375 -24.859375 L 21.78125 -19.328125 C 19.414062 -20.660156 16.835938 -21.328125 14.046875 -21.328125 C 12.390625 -21.328125 11.144531 -21.09375 10.3125 -20.625 C 9.476562 -20.164062 9.0625 -19.566406 9.0625 -18.828125 C 9.0625 -18.003906 9.507812 -17.425781 10.40625 -17.09375 C 11.3125 -16.757812 12.742188 -16.441406 14.703125 -16.140625 C 16.890625 -15.773438 18.679688 -15.382812 20.078125 -14.96875 C 21.472656 -14.550781 22.6875 -13.796875 23.71875 -12.703125 C 24.75 -11.609375 25.265625 -10.082031 25.265625 -8.125 C 25.265625 -6.457031 24.765625 -4.976562 23.765625 -3.6875 C 22.765625 -2.394531 21.3125 -1.390625 19.40625 -0.671875 C 17.5 0.046875 15.234375 0.40625 12.609375 0.40625 Z M 12.609375 0.40625 "/></g></g></g><g fill="#c0c0c0" fill-opacity="1"><g transform="translate(80.220901, 48.505665)"><g><path d="M 3.59375 -26.8125 L 11.359375 -26.8125 L 11.359375 0 L 3.59375 0 Z M 7.46875 -30.546875 C 6.039062 -30.546875 4.878906 -30.957031 3.984375 -31.78125 C 3.085938 -32.613281 2.640625 -33.644531 2.640625 -34.875 C 2.640625 -36.101562 3.085938 -37.132812 3.984375 -37.96875 C 4.878906 -38.800781 6.039062 -39.21875 7.46875 -39.21875 C 8.894531 -39.21875 10.054688 -38.816406 10.953125 -38.015625 C 11.859375 -37.222656 12.3125 -36.226562 12.3125 -35.03125 C 12.3125 -33.726562 11.859375 -32.65625 10.953125 -31.8125 C 10.054688 -30.96875 8.894531 -30.546875 7.46875 -30.546875 Z M 7.46875 -30.546875 "/></g></g></g><g fill="#c0c0c0" fill-opacity="1"><g transform="translate(95.214183, 48.505665)"><g><path d="M 16.34375 0.40625 C 13.519531 0.40625 10.984375 -0.179688 8.734375 -1.359375 C 6.492188 -2.546875 4.742188 -4.1875 3.484375 -6.28125 C 2.222656 -8.375 1.59375 -10.75 1.59375 -13.40625 C 1.59375 -16.0625 2.222656 -18.4375 3.484375 -20.53125 C 4.742188 -22.625 6.492188 -24.257812 8.734375 -25.4375 C 10.984375 -26.613281 13.519531 -27.203125 16.34375 -27.203125 C 19.164062 -27.203125 21.6875 -26.613281 23.90625 -25.4375 C 26.132812 -24.257812 27.878906 -22.625 29.140625 -20.53125 C 30.410156 -18.4375 31.046875 -16.0625 31.046875 -13.40625 C 31.046875 -10.75 30.410156 -8.375 29.140625 -6.28125 C 27.878906 -4.1875 26.132812 -2.546875 23.90625 -1.359375 C 21.6875 -0.179688 19.164062 0.40625 16.34375 0.40625 Z M 16.34375 -5.984375 C 18.332031 -5.984375 19.96875 -6.65625 21.25 -8 C 22.53125 -9.34375 23.171875 -11.144531 23.171875 -13.40625 C 23.171875 -15.664062 22.53125 -17.46875 21.25 -18.8125 C 19.96875 -20.15625 18.332031 -20.828125 16.34375 -20.828125 C 14.351562 -20.828125 12.707031 -20.15625 11.40625 -18.8125 C 10.113281 -17.46875 9.46875 -15.664062 9.46875 -13.40625 C 9.46875 -11.144531 10.113281 -9.34375 11.40625 -8 C 12.707031 -6.65625 14.351562 -5.984375 16.34375 -5.984375 Z M 16.34375 -5.984375 "/></g></g></g><g fill="#c0c0c0" fill-opacity="1"><g transform="translate(127.840758, 48.505665)"><g><path d="M 19.875 -27.203125 C 23.195312 -27.203125 25.878906 -26.207031 27.921875 -24.21875 C 29.972656 -22.226562 31 -19.269531 31 -15.34375 L 31 0 L 23.21875 0 L 23.21875 -14.15625 C 23.21875 -16.28125 22.75 -17.863281 21.8125 -18.90625 C 20.882812 -19.957031 19.539062 -20.484375 17.78125 -20.484375 C 15.820312 -20.484375 14.257812 -19.875 13.09375 -18.65625 C 11.9375 -17.445312 11.359375 -15.644531 11.359375 -13.25 L 11.359375 0 L 3.59375 0 L 3.59375 -26.8125 L 11.015625 -26.8125 L 11.015625 -23.671875 C 12.046875 -24.796875 13.320312 -25.664062 14.84375 -26.28125 C 16.375 -26.894531 18.050781 -27.203125 19.875 -27.203125 Z M 19.875 -27.203125 "/></g></g></g><g fill="#7ed957" fill-opacity="1"><g transform="translate(162.261695, 48.505665)"><g><path d="M 12.203125 -28.40625 L 12.203125 -19.1875 L 28.359375 -19.1875 L 28.359375 -12.703125 L 12.203125 -12.703125 L 12.203125 0 L 4.140625 0 L 4.140625 -34.875 L 30.5 -34.875 L 30.5 -28.40625 Z M 12.203125 -28.40625 "/></g></g></g><g fill="#7ed957" fill-opacity="1"><g transform="translate(193.393745, 48.505665)"><g><path d="M 29.84375 -13.296875 C 29.84375 -13.203125 29.796875 -12.507812 29.703125 -11.21875 L 9.421875 -11.21875 C 9.785156 -9.550781 10.644531 -8.234375 12 -7.265625 C 13.363281 -6.304688 15.0625 -5.828125 17.09375 -5.828125 C 18.488281 -5.828125 19.722656 -6.035156 20.796875 -6.453125 C 21.878906 -6.867188 22.882812 -7.523438 23.8125 -8.421875 L 27.953125 -3.9375 C 25.429688 -1.039062 21.742188 0.40625 16.890625 0.40625 C 13.867188 0.40625 11.191406 -0.179688 8.859375 -1.359375 C 6.535156 -2.546875 4.742188 -4.1875 3.484375 -6.28125 C 2.222656 -8.375 1.59375 -10.75 1.59375 -13.40625 C 1.59375 -16.03125 2.210938 -18.394531 3.453125 -20.5 C 4.703125 -22.613281 6.414062 -24.257812 8.59375 -25.4375 C 10.769531 -26.613281 13.203125 -27.203125 15.890625 -27.203125 C 18.515625 -27.203125 20.890625 -26.632812 23.015625 -25.5 C 25.140625 -24.375 26.804688 -22.753906 28.015625 -20.640625 C 29.234375 -18.535156 29.84375 -16.085938 29.84375 -13.296875 Z M 15.9375 -21.328125 C 14.175781 -21.328125 12.695312 -20.828125 11.5 -19.828125 C 10.3125 -18.835938 9.582031 -17.476562 9.3125 -15.75 L 22.515625 -15.75 C 22.253906 -17.4375 21.523438 -18.785156 20.328125 -19.796875 C 19.128906 -20.816406 17.664062 -21.328125 15.9375 -21.328125 Z M 15.9375 -21.328125 "/></g></g></g><g fill="#7ed957" fill-opacity="1"><g transform="translate(224.824835, 48.505665)"><g><path d="M 12.609375 0.40625 C 10.378906 0.40625 8.203125 0.128906 6.078125 -0.421875 C 3.953125 -0.972656 2.257812 -1.660156 1 -2.484375 L 3.59375 -8.078125 C 4.78125 -7.304688 6.222656 -6.679688 7.921875 -6.203125 C 9.617188 -5.722656 11.28125 -5.484375 12.90625 -5.484375 C 16.195312 -5.484375 17.84375 -6.296875 17.84375 -7.921875 C 17.84375 -8.679688 17.390625 -9.226562 16.484375 -9.5625 C 15.585938 -9.894531 14.210938 -10.179688 12.359375 -10.421875 C 10.160156 -10.742188 8.347656 -11.117188 6.921875 -11.546875 C 5.492188 -11.984375 4.253906 -12.75 3.203125 -13.84375 C 2.160156 -14.945312 1.640625 -16.507812 1.640625 -18.53125 C 1.640625 -20.226562 2.128906 -21.734375 3.109375 -23.046875 C 4.085938 -24.359375 5.515625 -25.378906 7.390625 -26.109375 C 9.273438 -26.835938 11.492188 -27.203125 14.046875 -27.203125 C 15.941406 -27.203125 17.828125 -26.992188 19.703125 -26.578125 C 21.578125 -26.160156 23.128906 -25.585938 24.359375 -24.859375 L 21.78125 -19.328125 C 19.414062 -20.660156 16.835938 -21.328125 14.046875 -21.328125 C 12.390625 -21.328125 11.144531 -21.09375 10.3125 -20.625 C 9.476562 -20.164062 9.0625 -19.566406 9.0625 -18.828125 C 9.0625 -18.003906 9.507812 -17.425781 10.40625 -17.09375 C 11.3125 -16.757812 12.742188 -16.441406 14.703125 -16.140625 C 16.890625 -15.773438 18.679688 -15.382812 20.078125 -14.96875 C 21.472656 -14.550781 22.6875 -13.796875 23.71875 -12.703125 C 24.75 -11.609375 25.265625 -10.082031 25.265625 -8.125 C 25.265625 -6.457031 24.765625 -4.976562 23.765625 -3.6875 C 22.765625 -2.394531 21.3125 -1.390625 19.40625 -0.671875 C 17.5 0.046875 15.234375 0.40625 12.609375 0.40625 Z M 12.609375 0.40625 "/></g></g></g><g fill="#7ed957" fill-opacity="1"><g transform="translate(251.27477, 48.505665)"><g><path d="M 20.875 -1.296875 C 20.113281 -0.734375 19.175781 -0.304688 18.0625 -0.015625 C 16.945312 0.265625 15.773438 0.40625 14.546875 0.40625 C 11.359375 0.40625 8.890625 -0.40625 7.140625 -2.03125 C 5.398438 -3.664062 4.53125 -6.0625 4.53125 -9.21875 L 4.53125 -20.234375 L 0.40625 -20.234375 L 0.40625 -26.203125 L 4.53125 -26.203125 L 4.53125 -32.734375 L 12.3125 -32.734375 L 12.3125 -26.203125 L 18.984375 -26.203125 L 18.984375 -20.234375 L 12.3125 -20.234375 L 12.3125 -9.3125 C 12.3125 -8.1875 12.597656 -7.316406 13.171875 -6.703125 C 13.753906 -6.085938 14.578125 -5.78125 15.640625 -5.78125 C 16.867188 -5.78125 17.914062 -6.113281 18.78125 -6.78125 Z M 20.875 -1.296875 "/></g></g></g></g></g></svg>